<?xml version="1.0" encoding="UTF-8" standalone="no"?><!DOCTYPE svg PUBLIC "-//W3C//DTD SVG 1.1//EN" "http://www.w3.org/Graphics/SVG/1.1/DTD/svg11.dtd"><svg width="100%" height="100%" viewBox="0 0 578 130" version="1.1" xmlns="http://www.w3.org/2000/svg" xmlns:xlink="http://www.w3.org/1999/xlink" xml:space="preserve" xmlns:serif="http://www.serif.com/" style="fill-rule:evenodd;clip-rule:evenodd;stroke-linejoin:round;stroke-miterlimit:2;"><g><path d="M52.343,27.606l2.438,0l-14.838,37.52l0,39.322l-1.166,0l-1.166,0l0,-39.322l-14.839,-37.52l2.438,0l13.567,35.4l13.566,-35.4Z" style="fill-rule:nonzero;"/><path d="M105.232,104.554l0.742,0l-0.742,0Zm-30.949,0l-1.166,0l-1.165,0l0,-75.994l0,-1.06l1.907,0l29.253,67.515c0.424,0.989 0.725,1.767 0.901,2.332c0.177,0.565 0.336,1.025 0.477,1.378l0,-71.225l2.226,0l0,77.054l-1.908,0l-28.935,-66.985c-0.141,-0.353 -0.441,-1.078 -0.901,-2.173c-0.459,-1.095 -0.759,-1.961 -0.901,-2.597l0.212,71.755Zm-1.484,-77.054l0.742,0l-0.742,0Z" style="fill-rule:nonzero;"/><path d="M138.513,27.5l-0.212,0l-0.106,0l-0.106,0l-0.212,0l-0.106,0l0.742,0Zm16.004,77.054l-2.331,0l-4.77,-23.211l-18.442,0l-4.982,23.211l-2.331,0l15.58,-77.054l1.802,0l15.474,77.054Zm-7.737,-25.437l-8.585,-45.788l-8.903,45.788l17.488,0Z" style="fill-rule:nonzero;"/><path d="M195.111,33.011c2.615,3.887 3.887,8.232 3.816,13.037c0,2.261 -0.265,4.363 -0.795,6.306c-0.53,1.944 -1.237,3.675 -2.12,5.194c-0.883,1.519 -1.89,2.773 -3.021,3.763c-1.13,0.989 -2.331,1.695 -3.603,2.119c1.484,0.212 3.091,0.813 4.822,1.802c1.732,0.989 3.092,2.191 4.081,3.604c1.413,2.049 2.473,4.328 3.18,6.836c0.706,2.509 1.06,5.141 1.06,7.896c0,4.593 -0.654,8.268 -1.961,11.023c-1.307,2.756 -2.933,4.876 -4.876,6.36c-1.943,1.484 -4.063,2.473 -6.359,2.967c-2.297,0.495 -4.505,0.742 -6.625,0.742l-10.916,0l-1.272,0l0,-77.266l13.354,0c3.039,0 5.371,0.495 6.996,1.484c1.625,0.989 3.038,2.367 4.239,4.133Zm-22.364,29.465l11.977,0c1.767,0 3.392,-0.441 4.876,-1.324c1.484,-0.884 2.756,-2.085 3.815,-3.604c1.06,-1.519 1.873,-3.268 2.438,-5.247c0.565,-1.978 0.848,-4.062 0.848,-6.253c0,-2.19 -0.3,-4.275 -0.901,-6.253c-0.6,-1.979 -1.431,-3.71 -2.491,-5.194c-1.059,-1.484 -2.296,-2.667 -3.709,-3.55c-1.413,-0.884 -2.968,-1.325 -4.664,-1.325l-12.189,0l0,32.75Zm9.963,39.959c3.463,0 6.342,-0.513 8.639,-1.537c2.296,-1.025 4.116,-2.403 5.458,-4.134c1.343,-1.731 2.279,-3.745 2.809,-6.041c0.53,-2.297 0.759,-4.682 0.689,-7.155c-0.142,-6.5 -1.608,-11.27 -4.399,-14.308c-2.791,-3.039 -7.189,-4.558 -13.196,-4.558l-9.963,0l0,37.733l9.963,0Z" style="fill-rule:nonzero;"/><path d="M302.055,34.389c1.342,2.12 2.384,4.505 3.126,7.155c0.742,2.649 1.113,5.317 1.113,8.002c0,2.755 -0.371,5.458 -1.113,8.108c-0.742,2.65 -1.784,4.999 -3.126,7.048c-1.484,2.261 -3.392,3.975 -5.724,5.141c-2.332,1.166 -5.617,1.749 -9.857,1.749l-9.963,0l0,32.962l-1.166,0l-1.06,0l0,-75.782l0,-1.272l12.189,0c3.816,0 7.013,0.601 9.592,1.802c2.579,1.201 4.575,2.897 5.989,5.087Zm-1.908,29.147c1.201,-1.907 2.155,-4.08 2.862,-6.518c0.706,-2.438 1.059,-4.928 1.059,-7.472c0,-2.473 -0.353,-4.929 -1.059,-7.366c-0.707,-2.438 -1.661,-4.611 -2.862,-6.519c-1.201,-1.837 -2.933,-3.268 -5.194,-4.292c-2.261,-1.025 -5.087,-1.537 -8.479,-1.537l-9.963,0l0,39.534l9.963,0c4.098,0 7.101,-0.512 9.009,-1.537c1.908,-1.025 3.463,-2.455 4.664,-4.293Z" style="fill-rule:nonzero;"/><path d="M337.879,27.5l-0.212,0l-0.106,0l-0.106,0l-0.212,0l-0.106,0l0.742,0Zm16.004,77.054l-2.331,0l-4.77,-23.211l-18.442,0l-4.982,23.211l-2.331,0l15.58,-77.054l1.802,0l15.474,77.054Zm-7.737,-25.437l-8.585,-45.788l-8.903,45.788l17.488,0Z" style="fill-rule:nonzero;"/><path d="M388.648,71.274c-0.777,0.141 -1.572,0.229 -2.385,0.265c-0.812,0.035 -1.678,0.053 -2.597,0.053l-9.963,0l0,32.962l-1.165,0l-1.06,0l0,-75.782l0,-1.272l12.188,0c3.816,0 7.013,0.601 9.593,1.802c2.579,1.201 4.575,2.897 5.988,5.087c1.342,2.12 2.385,4.505 3.127,7.155c0.742,2.649 1.112,5.317 1.112,8.002c0,2.755 -0.37,5.458 -1.112,8.108c-0.742,2.65 -1.785,4.999 -3.127,7.048c-0.989,1.555 -2.155,2.862 -3.498,3.922c-1.342,1.06 -3.038,1.802 -5.087,2.226l-2.014,0.424Zm8.691,-7.738c1.201,-1.907 2.155,-4.08 2.862,-6.518c0.706,-2.438 1.06,-4.928 1.06,-7.472c0,-2.473 -0.354,-4.929 -1.06,-7.366c-0.707,-2.438 -1.661,-4.611 -2.862,-6.519c-1.201,-1.837 -2.932,-3.268 -5.193,-4.292c-2.261,-1.025 -5.088,-1.537 -8.48,-1.537l-9.963,0l0,39.534l9.963,0c4.099,0 7.102,-0.512 9.01,-1.537c1.907,-1.025 3.462,-2.455 4.663,-4.293Zm-6.677,7.314l14.732,33.598l-2.331,0l-14.521,-33.174l2.12,-0.424Z" style="fill-rule:nonzero;"/><path d="M425.956,101.799c-1.766,-1.555 -3.091,-3.639 -3.974,-6.254c-0.884,-2.614 -1.325,-5.405 -1.325,-8.373l2.226,0c0,3.392 0.477,6.147 1.43,8.267c0.954,2.12 2.156,3.763 3.604,4.929c1.449,1.166 3.021,1.943 4.717,2.331c1.695,0.389 3.285,0.583 4.769,0.583c1.837,0 3.657,-0.265 5.459,-0.795c1.801,-0.529 3.427,-1.377 4.875,-2.543c1.449,-1.166 2.614,-2.703 3.498,-4.611c0.883,-1.908 1.325,-4.239 1.325,-6.995c0,-3.18 -0.46,-5.953 -1.378,-8.32c-0.919,-2.367 -2.138,-4.469 -3.657,-6.307c-1.519,-1.837 -3.233,-3.48 -5.14,-4.928c-1.908,-1.449 -3.851,-2.88 -5.83,-4.293c-1.908,-1.342 -3.727,-2.667 -5.458,-3.974c-1.731,-1.308 -3.304,-2.774 -4.717,-4.399c-3.109,-3.745 -4.663,-7.914 -4.663,-12.507l0,-1.642c0,-0.884 0.123,-1.926 0.371,-3.127c0.247,-1.201 0.653,-2.509 1.219,-3.922c0.565,-1.413 1.448,-2.72 2.649,-3.921c2.756,-2.968 6.607,-4.452 11.553,-4.452c5.017,0 8.797,1.484 11.341,4.452c1.06,1.271 1.819,2.667 2.279,4.186c0.459,1.519 0.759,2.968 0.901,4.346c0.141,1.378 0.194,2.544 0.159,3.497c-0.036,0.954 -0.053,1.467 -0.053,1.537l-2.226,0c0,0 0.018,-0.424 0.053,-1.272c0.035,-0.848 -0.018,-1.907 -0.159,-3.179c-0.141,-1.272 -0.406,-2.597 -0.795,-3.975c-0.389,-1.378 -1.042,-2.597 -1.961,-3.657c-1.06,-1.201 -2.367,-2.119 -3.921,-2.755c-1.555,-0.636 -3.427,-0.954 -5.618,-0.954c-4.31,0 -7.596,1.236 -9.857,3.709c-0.989,1.06 -1.731,2.226 -2.226,3.498c-0.494,1.272 -0.848,2.456 -1.06,3.551c-0.212,1.095 -0.318,2.031 -0.318,2.808l0,1.166c0,2.332 0.389,4.399 1.166,6.201c0.778,1.802 1.802,3.462 3.074,4.981c1.272,1.519 2.738,2.915 4.399,4.187c1.66,1.272 3.374,2.544 5.14,3.815c2.049,1.414 4.063,2.898 6.041,4.452c1.979,1.555 3.781,3.321 5.406,5.299c3.674,4.523 5.511,9.822 5.511,15.899c0,5.723 -1.907,10.175 -5.723,13.355c-3.109,2.543 -6.995,3.815 -11.659,3.815c-1.625,0 -3.48,-0.229 -5.564,-0.689c-2.085,-0.459 -4.046,-1.466 -5.883,-3.02Z" style="fill-rule:nonzero;"/><path d="M502.481,102.54l0,2.014l-29.889,0l0,-1.06l0,-74.828l0,-1.166l29.465,0l0,2.014l-27.24,0l0,40.064l21.304,0l0,2.014l-21.304,0l0,30.948l27.664,0Z" style="fill-rule:nonzero;"/><path d="M540.743,71.274c-0.777,0.141 -1.572,0.229 -2.385,0.265c-0.813,0.035 -1.678,0.053 -2.597,0.053l-9.963,0l0,32.962l-1.166,0l-1.059,0l0,-75.782l0,-1.272l12.188,0c3.816,0 7.013,0.601 9.592,1.802c2.579,1.201 4.576,2.897 5.989,5.087c1.342,2.12 2.385,4.505 3.126,7.155c0.742,2.649 1.113,5.317 1.113,8.002c0,2.755 -0.371,5.458 -1.113,8.108c-0.741,2.65 -1.784,4.999 -3.126,7.048c-0.989,1.555 -2.155,2.862 -3.498,3.922c-1.342,1.06 -3.038,1.802 -5.087,2.226l-2.014,0.424Zm8.691,-7.738c1.201,-1.907 2.155,-4.08 2.862,-6.518c0.706,-2.438 1.06,-4.928 1.06,-7.472c0,-2.473 -0.354,-4.929 -1.06,-7.366c-0.707,-2.438 -1.661,-4.611 -2.862,-6.519c-1.201,-1.837 -2.932,-3.268 -5.194,-4.292c-2.261,-1.025 -5.087,-1.537 -8.479,-1.537l-9.963,0l0,39.534l9.963,0c4.099,0 7.102,-0.512 9.009,-1.537c1.908,-1.025 3.463,-2.455 4.664,-4.293Zm-6.677,7.314l14.732,33.598l-2.332,0l-14.52,-33.174l2.12,-0.424Z" style="fill-rule:nonzero;"/></g></svg>